<svg width="14" height="13" viewBox="0 0 14 13" fill="none" xmlns="http://www.w3.org/2000/svg">
<path d="M7.08336 7.03388C7.515 7.03388 7.86491 6.68397 7.86491 6.25234C7.86491 5.8207 7.515 5.47079 7.08336 5.47079C6.65173 5.47079 6.30182 5.8207 6.30182 6.25234C6.30182 6.68397 6.65173 7.03388 7.08336 7.03388Z" fill="#00FFFF" fill-opacity="0.5"/>
<path d="M12.2261 5.99183C11.8927 5.41349 10.0586 2.51136 6.9429 2.60514C4.06161 2.67809 2.39432 5.21029 1.94102 5.99183C1.89529 6.07104 1.87122 6.16089 1.87122 6.25235C1.87122 6.3438 1.89529 6.43365 1.94102 6.51286C2.26927 7.08078 4.02514 9.89955 7.094 9.89955H7.22425C10.1055 9.8266 11.778 7.2944 12.2261 6.51286C12.2719 6.43365 12.2959 6.3438 12.2959 6.25235C12.2959 6.16089 12.2719 6.07104 12.2261 5.99183ZM7.08358 8.07595C6.7229 8.07595 6.37033 7.96899 6.07044 7.76861C5.77055 7.56823 5.53681 7.28343 5.39879 6.95021C5.26076 6.61699 5.22465 6.25032 5.29501 5.89658C5.36538 5.54283 5.53906 5.2179 5.79409 4.96286C6.04913 4.70783 6.37406 4.53415 6.72781 4.46378C7.08155 4.39342 7.44822 4.42953 7.78144 4.56756C8.11466 4.70558 8.39946 4.93932 8.59984 5.23921C8.80022 5.5391 8.90718 5.89167 8.90718 6.25235C8.90718 6.73599 8.71505 7.19983 8.37306 7.54183C8.03106 7.88382 7.56722 8.07595 7.08358 8.07595Z" fill="#00FFFF"/>
</svg>
