<svg width="17" height="17" viewBox="0 0 17 17" fill="none" xmlns="http://www.w3.org/2000/svg">
<path d="M8.08833 7.41416C8.62156 7.41416 9.14282 7.25604 9.58618 6.95979C10.0295 6.66355 10.3751 6.24248 10.5792 5.74984C10.7832 5.2572 10.8366 4.71511 10.7326 4.19213C10.6286 3.66914 10.3718 3.18875 9.99474 2.8117C9.61768 2.43465 9.13729 2.17787 8.61431 2.07385C8.09132 1.96982 7.54924 2.02321 7.0566 2.22727C6.56395 2.43133 6.14289 2.77689 5.84664 3.22025C5.55039 3.66362 5.39227 4.18487 5.39227 4.7181C5.39227 5.43314 5.67632 6.1189 6.18193 6.62451C6.68754 7.13011 7.37329 7.41416 8.08833 7.41416Z" fill="white"/>
<path d="M12.1326 14.1543C12.3113 14.1543 12.4828 14.0833 12.6092 13.9569C12.7356 13.8305 12.8066 13.659 12.8066 13.4803C12.8066 12.229 12.3095 11.0289 11.4247 10.1441C10.5399 9.25927 9.33979 8.76218 8.08847 8.76218C6.83715 8.76218 5.63708 9.25927 4.75226 10.1441C3.86745 11.0289 3.37036 12.229 3.37036 13.4803C3.37036 13.659 3.44137 13.8305 3.56778 13.9569C3.69418 14.0833 3.86562 14.1543 4.04438 14.1543H12.1326Z" fill="white"/>
</svg>
