<svg width="16" height="16" viewBox="0 0 16 16" fill="none" xmlns="http://www.w3.org/2000/svg">
<path d="M7.75235 10.3365C8.10914 10.3365 8.39838 10.0472 8.39838 9.69043C8.39838 9.33364 8.10914 9.0444 7.75235 9.0444C7.39556 9.0444 7.10632 9.33364 7.10632 9.69043C7.10632 10.0472 7.39556 10.3365 7.75235 10.3365Z" fill="white"/>
<path d="M10.9825 5.16822H10.3365V3.94723C10.3365 3.26188 10.0643 2.6046 9.57964 2.11998C9.09503 1.63537 8.43775 1.36311 7.7524 1.36311C7.06705 1.36311 6.40977 1.63537 5.92515 2.11998C5.44054 2.6046 5.16828 3.26188 5.16828 3.94723V5.16822H4.52225C4.00824 5.16822 3.51528 5.37241 3.15182 5.73588C2.78836 6.09934 2.58417 6.5923 2.58417 7.10631V12.2745C2.58417 12.7886 2.78836 13.2815 3.15182 13.645C3.51528 14.0084 4.00824 14.2126 4.52225 14.2126H10.9825C11.4966 14.2126 11.9895 14.0084 12.353 13.645C12.7164 13.2815 12.9206 12.7886 12.9206 12.2745V7.10631C12.9206 6.5923 12.7164 6.09934 12.353 5.73588C11.9895 5.37241 11.4966 5.16822 10.9825 5.16822ZM6.46034 3.94723C6.45165 3.59533 6.58273 3.25433 6.82488 2.99886C7.06704 2.74338 7.40054 2.59425 7.7524 2.58411C8.10425 2.59425 8.43776 2.74338 8.67991 2.99886C8.92207 3.25433 9.05315 3.59533 9.04446 3.94723V5.16822H6.46034V3.94723ZM7.7524 11.6285C7.36908 11.6285 6.99437 11.5148 6.67565 11.3019C6.35694 11.0889 6.10853 10.7862 5.96184 10.4321C5.81515 10.078 5.77677 9.68828 5.85155 9.31232C5.92633 8.93637 6.11092 8.59104 6.38196 8.31999C6.65301 8.04894 6.99834 7.86436 7.3743 7.78958C7.75025 7.7148 8.13993 7.75318 8.49407 7.89987C8.84821 8.04656 9.1509 8.29497 9.36386 8.61368C9.57682 8.9324 9.69048 9.30711 9.69048 9.69042C9.69048 10.2044 9.48629 10.6974 9.12283 11.0609C8.75937 11.4243 8.26641 11.6285 7.7524 11.6285Z" fill="white"/>
</svg>
